<?xml version="1.0" encoding="utf-8"?>
<!-- Generator: Adobe Illustrator 22.1.0, SVG Export Plug-In . SVG Version: 6.00 Build 0)  -->
<svg version="1.1" id="Layer_1" xmlns="http://www.w3.org/2000/svg" xmlns:xlink="http://www.w3.org/1999/xlink" x="0px" y="0px"
	 viewBox="0 0 110 121" style="enable-background:new 0 0 110 121;" xml:space="preserve">
<style type="text/css">
	.st0{fill:#c0c0c0;}
</style>
<title>Aegeus_A1</title>
<path class="st0" d="M100.4,36.6l-0.1-2.6L56.1,12.3L11.9,34.1l-0.1,2.6c0,0.4-0.3,7.7,3.7,21.8c2.5-1.5,5.2-2.6,8.1-3.1
	c-1.5-5.2-2.5-10.5-3.1-15.8L56.1,22l34.8,17.1L56.1,54v28.5c0,5.2,0,15.4-8.7,10.1c-4-3.1-7.7-6.5-11-10.2
	c2.6-4.9,0.7-10.9-4.2-13.4s-10.9-0.7-13.4,4.2S18.2,84.1,23,86.6c2,1,4.3,1.4,6.5,1c10.2,11.9,23.8,19.5,24.5,19.9l2.1,1.1l2.1-1.1
	c1.1-0.6,26-14.4,33.7-34.7C100.9,49.2,100.5,37.1,100.4,36.6z"/>
</svg>
